<?xml version="1.0" encoding="utf-8"?>
<!-- Generator: Adobe Illustrator 22.0.1, SVG Export Plug-In . SVG Version: 6.00 Build 0)  -->
<svg version="1.1" id="Layer_1" xmlns="http://www.w3.org/2000/svg" xmlns:xlink="http://www.w3.org/1999/xlink" x="0px" y="0px"
	 viewBox="0 0 100 100" style="enable-background:new 0 0 100 100;" xml:space="preserve">
<style type="text/css">
	.st0{fill:#237C13;}
</style>
<g>
	<polygon class="st0" points="50,69.4 27.1,81.3 31.6,55.9 13.2,37.8 38.7,34.2 50.3,11.2 61.6,34.4 87,38.2 68.5,56.1 72.7,81.5 	
		"/>
	<path d="M50.3,14.6l9.6,19.7l0.7,1.4l1.6,0.2l21.7,3.3L68,54.5l-1.1,1.1l0.3,1.6l3.6,21.7L51.4,68.5L50,67.7l-1.4,0.7L29.1,78.5
		l3.8-21.6l0.3-1.6l-1.1-1.1L16.4,38.9l21.7-3l1.6-0.2l0.7-1.4L50.3,14.6 M50.3,7.8L37.8,32.9L10,36.7l20,19.7L25.1,84l24.9-12.9
		l24.7,13.2l-4.6-27.7l20.2-19.4L62.6,33L50.3,7.8L50.3,7.8z"/>
</g>
</svg>
